<?xml version="1.0" encoding="utf-8" ?><svg xmlns="http://www.w3.org/2000/svg" xmlns:xlink="http://www.w3.org/1999/xlink" width="1033" height="1033" viewBox="0 0 1033 1033"><path fill="#131217" transform="scale(0.50459 0.50459)" d="M0 0L2048 0L2048 2048L0 2048L0 0Z"/><path fill="#129A6B" transform="scale(0.50459 0.50459)" d="M1009.22 873.971C1008.01 867.996 1006.43 860.193 1010.73 855.394C1026.91 837.296 1049.14 851.066 1041.56 875.175C1060.89 886.354 1082.29 900.103 1102.16 909.812C1109.74 910.01 1118.74 896.606 1130.9 908.12C1143.46 920.022 1135.12 924.836 1133.2 934.073C1137.35 935.414 1153.43 945.146 1156.76 948.114C1157.33 948.41 1160.74 950.485 1161.45 949.864C1165.45 946.347 1174.23 940.963 1180.07 943.626C1202.09 953.671 1197.95 978.177 1172.66 980.006C1174.41 1002.83 1172.75 1042.94 1172.99 1067.26C1173.82 1067.64 1174.64 1068.04 1175.45 1068.45C1197.46 1088.53 1175.94 1109.58 1156.5 1098.34C1147.44 1110.47 1136.48 1125.86 1126.86 1137.24C1126.49 1136.76 1126.13 1136.28 1125.76 1135.79C1120.54 1133.13 1115.33 1133.15 1112.21 1129.47L1110.46 1130.49C1103.1 1135.98 1098.19 1136.51 1095.85 1147.06C1097.12 1151.93 1099.18 1154.96 1102.68 1148.91C1102.58 1151.75 1103.66 1154.52 1105.66 1156.55C1103.78 1159.18 1103.45 1159.56 1100.99 1161.71C1100.91 1161.64 1099.67 1160.5 1099.41 1160.67C1084.89 1170.29 1069.68 1178.93 1055.07 1188.51C1050.88 1191.26 1046.93 1194.47 1042.22 1196.16L1042.37 1196.64C1053 1230.42 998.63 1231.23 1007.63 1196.89C997.723 1190.35 954.058 1166.64 948.746 1160.75C941.425 1162.85 937.342 1170.39 927.198 1165.67C914.827 1159.9 913.222 1151.21 917.882 1139.39C909.021 1129.23 895.054 1111.6 887.4 1100.32C862.192 1108.58 851.221 1076.21 874.721 1066.18C875.024 1065.92 875.326 1065.67 875.629 1065.41C876.372 1045.3 874.388 1023.75 875.169 1003.44C875.468 995.678 874.76 987.564 876.101 979.898C847.757 977.019 852.698 942.54 876.98 943.327C881.302 943.467 885.815 947.896 890.032 949.465C891.708 948.119 893.423 946.823 895.174 945.576C899.824 942.244 910.085 934.123 914.437 931.952C914.966 928.157 913.427 927.787 913.117 924.494C911.305 905.208 933.4 895.705 945.862 911.156C946.293 911.442 946.723 911.729 947.154 912.015C951.264 908.187 960.797 903.903 965.91 900.703C980.292 891.699 995.419 883.859 1009.22 873.971Z"/><path fill="#0D9E67" transform="scale(0.50459 0.50459)" d="M1037.3 990.435C1043.68 989.445 1052.01 990.602 1049.3 999.29C1049.51 1000.15 1050.01 1002.46 1050.48 1003.27C1050.76 1003.06 1050.77 1002.71 1050.94 1002.1C1051.95 1004.67 1052.69 1007.32 1053.69 1009.9C1057.07 1012.19 1058.58 1022.07 1066.04 1025.66L1067.98 1024.82L1066.47 1025.34C1060.33 1027.26 1062.44 1035.07 1064.57 1039.44L1064.83 1040.28C1062.7 1044.57 1061.18 1049.11 1060.07 1053.76C1059.67 1054.53 1059.46 1055.26 1059.18 1056.09C1057.3 1058.92 1055.27 1061.29 1053.32 1064.16C1051.51 1067.16 1051.34 1063.33 1049.92 1066.2C1043.8 1070.51 1038.3 1071.62 1037.89 1079.4C1037.3 1079.91 1036.73 1080.42 1036.16 1080.94L1033.35 1082.22C1032.83 1079.84 1032.65 1078.44 1032.8 1076L1032.87 1073.99C1023.84 1073.16 1024.15 1073.2 1016.38 1076.87L1015.57 1076.68C1013.83 1075.34 1012.08 1074.39 1010.11 1073.43C1009.97 1073.37 1009.84 1073.28 1009.69 1073.23C1008.94 1072.95 1008.07 1072.74 1007.31 1073.14C1006.65 1073.49 1006.33 1074.28 1006.19 1074.97C1005.95 1076.2 1006.15 1077.34 1006.29 1078.57C1006.37 1079.27 1006.75 1080.14 1006.3 1080.69C1006.23 1080.78 1005.73 1081.15 1005.7 1081.17C1005.13 1079.04 1005.33 1072.45 1004.18 1072.56C1003.07 1073.37 1002.75 1075.95 1002.26 1077.32C993.412 1082.17 988.217 1079.7 988.057 1068.83L987.651 1067.94C988.541 1066.29 988.725 1064.36 988.158 1062.58C987.592 1060.8 986.325 1059.33 984.65 1058.5C983.853 1056.6 983.984 1057.46 983.932 1056.01C977.608 1055.16 977.094 1057.6 972.445 1053.03L970.683 1052.85C970.14 1050.75 968.917 1046 968.811 1043.99C967.206 1040.52 966.088 1038.41 964.175 1035.09C965.758 1030.12 965.942 1033.48 969.745 1031.08C971.532 1029.76 972.748 1028.76 974.424 1027.34C976.162 1024.34 975.756 1023.83 978.856 1022.54C979.177 1019.11 979.245 1017.6 979.134 1014.12L979.778 1014.15C980.738 1014.53 981.921 1015.29 982.836 1015.82C983.997 1016.36 984.021 1016.5 985.136 1016.49C992.307 1012.5 994.882 1006.65 999.355 1000.24C1000.5 1000.26 1000.88 1000.25 1002.02 1000.09C1008.05 999.615 1009.19 998.002 1014.75 995.76L1016.9 993.952C1020.83 993.628 1022.63 993.054 1026.53 992.093C1028.77 991.505 1028.88 991.571 1031.3 991.576C1034.12 991.883 1034.63 991.536 1037.3 990.435Z"/><path fill="#0B0C0D" transform="scale(0.50459 0.50459)" d="M974.424 1027.34C974.81 1030.06 974.837 1031.9 976.022 1034.32C975.71 1034.79 975.399 1035.26 975.087 1035.74C976.509 1035.82 978.099 1035.77 979.543 1035.76C983.03 1040.02 986.561 1050.49 983.932 1056.01C977.608 1055.16 977.094 1057.6 972.445 1053.03L970.683 1052.85C970.14 1050.75 968.917 1046 968.811 1043.99C967.206 1040.52 966.088 1038.41 964.175 1035.09C965.758 1030.12 965.942 1033.48 969.745 1031.08C971.532 1029.76 972.748 1028.76 974.424 1027.34Z"/><path fill="#0D9E67" transform="scale(0.50459 0.50459)" d="M974.424 1027.34C974.81 1030.06 974.837 1031.9 976.022 1034.32C975.71 1034.79 975.399 1035.26 975.087 1035.74C973.006 1037.32 972.343 1037.67 970.914 1039.85C970.213 1041.3 969.607 1042.6 968.811 1043.99C967.206 1040.52 966.088 1038.41 964.175 1035.09C965.758 1030.12 965.942 1033.48 969.745 1031.08C971.532 1029.76 972.748 1028.76 974.424 1027.34Z"/><path fill="#1A7A57" transform="scale(0.50459 0.50459)" d="M970.914 1039.85C971.022 1048.79 971.333 1045.58 972.445 1053.03L970.683 1052.85C970.14 1050.75 968.917 1046 968.811 1043.99C969.607 1042.6 970.213 1041.3 970.914 1039.85Z"/><path fill="#0B0C0D" transform="scale(0.50459 0.50459)" d="M988.057 1068.83L988.671 1067.86C994.583 1058.31 1000.91 1071.35 1002.26 1077.32C993.412 1082.17 988.217 1079.7 988.057 1068.83Z"/><path fill="#131217" transform="scale(0.50459 0.50459)" d="M1037.3 990.435C1043.68 989.445 1052.01 990.602 1049.3 999.29C1047.51 1000.19 1046.92 1000.87 1045.35 1002.2C1040.93 1001.73 1039.35 999.914 1036.61 996.4C1037 994.15 1037.16 992.714 1037.3 990.435Z"/><path fill="#08251B" transform="scale(0.50459 0.50459)" d="M978.856 1022.54C981.724 1022.05 983.889 1017.77 985.173 1019.75C984.963 1022.17 981.852 1028.12 980.851 1033.1L980.716 1033.75L979.543 1035.76C978.099 1035.77 976.509 1035.82 975.087 1035.74C975.399 1035.26 975.71 1034.79 976.022 1034.32C974.837 1031.9 974.81 1030.06 974.424 1027.34C976.162 1024.34 975.756 1023.83 978.856 1022.54Z"/><path fill="#1A7A57" transform="scale(0.50459 0.50459)" d="M976.022 1034.32L980.716 1033.75L979.543 1035.76C978.099 1035.77 976.509 1035.82 975.087 1035.74C975.399 1035.26 975.71 1034.79 976.022 1034.32Z"/><path fill="#08251B" transform="scale(0.50459 0.50459)" d="M1031.3 991.576C1034.12 991.883 1034.63 991.536 1037.3 990.435C1037.16 992.714 1037 994.15 1036.61 996.4C1030.52 994.872 1028.9 997.429 1026.53 992.093C1028.77 991.505 1028.88 991.571 1031.3 991.576Z"/><path fill="#08251B" transform="scale(0.50459 0.50459)" d="M1049.3 999.29C1049.51 1000.15 1050.01 1002.46 1050.48 1003.27C1050.76 1003.06 1050.77 1002.71 1050.94 1002.1C1051.95 1004.67 1052.69 1007.32 1053.69 1009.9C1049.74 1009.29 1047.68 1007.02 1045.91 1003.32L1045.35 1002.2C1046.92 1000.87 1047.51 1000.19 1049.3 999.29Z"/><path fill="#131217" transform="scale(0.50459 0.50459)" d="M1133.2 934.073C1137.35 935.414 1153.43 945.146 1156.76 948.114C1157.33 948.41 1160.74 950.485 1161.45 949.864C1165.45 946.347 1174.23 940.963 1180.07 943.626C1202.09 953.671 1197.95 978.177 1172.66 980.006C1174.41 1002.83 1172.75 1042.94 1172.99 1067.26C1173.82 1067.64 1174.64 1068.04 1175.45 1068.45C1173.64 1070.57 1172.48 1071.85 1171.05 1074.22C1168.46 1073.13 1165.55 1073.13 1162.96 1074.22C1159.75 1073.08 1159.56 1072.36 1157.77 1069.23C1162.33 1063.39 1156.95 1060.85 1154.67 1053.89C1156.21 1053.09 1157.03 1052.64 1158.5 1051.71L1158.22 1050.52C1156.65 1044.22 1156.67 1037.43 1156.09 1030.82C1153.22 1027.44 1156.85 1018.79 1150.21 1018.47C1145.34 1016.51 1144.68 1015.88 1140.31 1013.02C1130.52 1001.64 1119.33 998.937 1115.17 978.479L1114.12 973.493C1114.01 972.909 1113.9 972.325 1113.79 971.741L1113.39 969.834C1112.21 959.652 1111.29 954.467 1110.51 943.761C1112.4 935.593 1120.2 944.318 1131.45 935.427C1132.25 934.715 1132.32 934.605 1133.2 934.073Z"/><path fill="#131217" transform="scale(0.50459 0.50459)" d="M1170.52 982.71C1171.24 981.776 1171.89 980.9 1172.66 980.006C1174.41 1002.83 1172.75 1042.94 1172.99 1067.26C1173.82 1067.64 1174.64 1068.04 1175.45 1068.45C1173.64 1070.57 1172.48 1071.85 1171.05 1074.22C1168.46 1073.13 1165.55 1073.13 1162.96 1074.22C1159.75 1073.08 1159.56 1072.36 1157.77 1069.23C1162.33 1063.39 1156.95 1060.85 1154.67 1053.89C1156.21 1053.09 1157.03 1052.64 1158.5 1051.71L1158.22 1050.52C1156.65 1044.22 1156.67 1037.43 1156.09 1030.82C1157.26 1027.59 1156.56 1024.11 1157.28 1021C1159.57 1011.17 1163.05 998.939 1167.26 989.831C1167.39 988.893 1167.32 988.874 1167.71 988.08L1171.1 987.049C1170.93 985.549 1170.77 984.207 1170.52 982.71Z"/><path fill="#1A7A57" transform="scale(0.50459 0.50459)" d="M1170.52 982.71C1171.24 981.776 1171.89 980.9 1172.66 980.006C1174.41 1002.83 1172.75 1042.94 1172.99 1067.26L1170.75 1066.29L1168.17 1066.7C1168.22 1066.52 1168.69 1064.56 1168.7 1064.42C1169.38 1040.69 1168.74 1016.78 1169.01 993.036C1169.02 992.155 1167.68 990.449 1167.26 989.831C1167.39 988.893 1167.32 988.874 1167.71 988.08L1171.1 987.049C1170.93 985.549 1170.77 984.207 1170.52 982.71Z"/><path fill="#0B0C0D" transform="scale(0.50459 0.50459)" d="M1167.71 988.08L1171.1 987.049C1169.79 1011.6 1172.43 1042.98 1170.75 1066.29L1168.17 1066.7C1168.22 1066.52 1168.69 1064.56 1168.7 1064.42C1169.38 1040.69 1168.74 1016.78 1169.01 993.036C1169.02 992.155 1167.68 990.449 1167.26 989.831C1167.39 988.893 1167.32 988.874 1167.71 988.08Z"/><path fill="#129A6B" transform="scale(0.50459 0.50459)" d="M1154.67 1053.89C1156.21 1053.09 1157.03 1052.64 1158.5 1051.71C1160.29 1058.89 1161.06 1063.95 1168.17 1066.7L1170.75 1066.29L1172.99 1067.26C1173.82 1067.64 1174.64 1068.04 1175.45 1068.45C1173.64 1070.57 1172.48 1071.85 1171.05 1074.22C1168.46 1073.13 1165.55 1073.13 1162.96 1074.22C1159.75 1073.08 1159.56 1072.36 1157.77 1069.23C1162.33 1063.39 1156.95 1060.85 1154.67 1053.89Z"/><path fill="#0D9E67" transform="scale(0.50459 0.50459)" d="M1156.76 948.114C1157.33 948.41 1160.74 950.485 1161.45 949.864C1165.45 946.347 1174.23 940.963 1180.07 943.626C1202.09 953.671 1197.95 978.177 1172.66 980.006C1171.89 980.9 1171.24 981.776 1170.52 982.71L1169.44 982.37L1167.91 980.312C1165.36 976.472 1161.99 973.64 1159.33 969.382C1153.23 959.605 1163.09 956.942 1156.14 949.949L1156.76 948.114Z"/><path fill="#131217" transform="scale(0.50459 0.50459)" d="M1171.17 952.355C1176.54 950.107 1182.71 952.654 1184.92 958.033C1187.14 963.412 1184.56 969.568 1179.17 971.755C1173.82 973.925 1167.72 971.368 1165.52 966.032C1163.32 960.696 1165.85 954.585 1171.17 952.355Z"/><path fill="#129A6B" transform="scale(0.50459 0.50459)" d="M1167.91 980.312L1169.44 982.37L1170.52 982.71C1170.77 984.207 1170.93 985.549 1171.1 987.049L1167.71 988.08C1167.32 988.874 1167.39 988.893 1167.26 989.831C1163.05 998.939 1159.57 1011.17 1157.28 1021C1156.56 1024.11 1157.26 1027.59 1156.09 1030.82C1153.22 1027.44 1156.85 1018.79 1150.21 1018.47C1154.45 1017.28 1154.56 1016.25 1155.78 1011.99C1158.89 1001.18 1163.9 990.865 1167.91 980.312Z"/><path fill="#0C4D33" transform="scale(0.50459 0.50459)" d="M1170.52 982.71C1170.77 984.207 1170.93 985.549 1171.1 987.049L1167.71 988.08C1168.31 986.182 1168.88 984.279 1169.44 982.37L1170.52 982.71Z"/><path fill="#1A7A57" transform="scale(0.50459 0.50459)" d="M1133.2 934.073C1137.35 935.414 1153.43 945.146 1156.76 948.114L1156.14 949.949C1149.54 946.923 1139.3 939.52 1131.45 935.427C1132.25 934.715 1132.32 934.605 1133.2 934.073Z"/><path fill="#131217" transform="scale(0.50459 0.50459)" d="M890.032 949.465C891.708 948.119 893.423 946.823 895.174 945.576C899.824 942.244 910.085 934.123 914.437 931.952L915.48 932.901C918.255 933.701 921.526 936.765 924.096 938.603C922.709 946.11 921.313 953.435 920.353 961.006C918.992 971.745 921.672 979.893 914.098 988.525C917.358 989.704 920.269 989.862 923.075 991.34C901.293 997.798 894.476 1011.58 894.244 1033.13C896.749 1044.21 900.237 1048.94 908.38 1056.6C906.747 1056.97 905.11 1057.33 903.47 1057.68C901.973 1057.32 896.045 1055.17 894.477 1056.91C890.772 1061.02 884.862 1064.88 890.63 1069.68C902.337 1079.44 898.018 1091.66 889.153 1099.2L887.4 1100.32C862.192 1108.58 851.221 1076.21 874.721 1066.18C875.024 1065.92 875.326 1065.67 875.629 1065.41C876.372 1045.3 874.388 1023.75 875.169 1003.44C875.468 995.678 874.76 987.564 876.101 979.898C847.757 977.019 852.698 942.54 876.98 943.327C881.302 943.467 885.815 947.896 890.032 949.465Z"/><path fill="#0D9E67" transform="scale(0.50459 0.50459)" d="M888.108 1035.55C888.45 1033.87 889.64 1021 889.032 1021.99C895.67 1011.17 891.427 1031.39 894.244 1033.13C896.749 1044.21 900.237 1048.94 908.38 1056.6C906.747 1056.97 905.11 1057.33 903.47 1057.68C901.973 1057.32 896.045 1055.17 894.477 1056.91C890.772 1061.02 884.862 1064.88 890.63 1069.68C902.337 1079.44 898.018 1091.66 889.153 1099.2L887.4 1100.32C862.192 1108.58 851.221 1076.21 874.721 1066.18C875.024 1065.92 875.326 1065.67 875.629 1065.41C876.397 1063.78 876.487 1063.82 877.716 1062.22C878.958 1065.66 879.648 1065.04 883.337 1065.96C887.588 1058.68 887.137 1044.17 888.108 1035.55Z"/><path fill="#131217" transform="scale(0.50459 0.50459)" d="M876.948 1073.54C880.701 1072.42 884.765 1073.43 887.557 1076.18C890.349 1078.92 891.428 1082.97 890.372 1086.74C889.317 1090.51 886.295 1093.41 882.483 1094.31C876.823 1095.64 871.13 1092.23 869.632 1086.61C868.135 1080.99 871.376 1075.2 876.948 1073.54Z"/><path fill="#0D9E67" transform="scale(0.50459 0.50459)" d="M876.101 979.898C847.757 977.019 852.698 942.54 876.98 943.327C881.302 943.467 885.815 947.896 890.032 949.465L891.091 952.27C897.024 969.089 886.881 969.775 882.512 980.643C881.788 982.624 881.858 982.508 880.419 984.107L878.347 981.184C877.364 980.202 877.489 980.308 876.101 979.898Z"/><path fill="#131217" transform="scale(0.50459 0.50459)" d="M872.338 951.338C877.869 949.827 883.599 952.986 885.273 958.47C886.948 963.954 883.959 969.775 878.527 971.611C874.868 972.847 870.826 971.996 867.976 969.389C865.126 966.781 863.919 962.83 864.827 959.075C865.734 955.321 868.612 952.357 872.338 951.338Z"/><path fill="#131217" transform="scale(0.50459 0.50459)" d="M876.101 979.898C877.489 980.308 877.364 980.202 878.347 981.184L880.419 984.107L880.085 984.704L882.001 988.198C887.727 1008.81 887.572 1014.4 888.108 1035.55C887.137 1044.17 887.588 1058.68 883.337 1065.96C879.648 1065.04 878.958 1065.66 877.716 1062.22C876.487 1063.82 876.397 1063.78 875.629 1065.41C876.372 1045.3 874.388 1023.75 875.169 1003.44C875.468 995.678 874.76 987.564 876.101 979.898Z"/><path fill="#1A7A57" transform="scale(0.50459 0.50459)" d="M876.101 979.898C877.489 980.308 877.364 980.202 878.347 981.184C877.433 991.48 877.197 1050.62 878.362 1061.03L877.716 1062.22C876.487 1063.82 876.397 1063.78 875.629 1065.41C876.372 1045.3 874.388 1023.75 875.169 1003.44C875.468 995.678 874.76 987.564 876.101 979.898Z"/><path fill="#0B0C0D" transform="scale(0.50459 0.50459)" d="M878.362 1061.03C880.011 1056.95 878.788 1055.28 879.603 1052.34L879.699 1052.38C880.09 1053.88 883.176 1064.67 883.178 1064.68L883.337 1065.96C879.648 1065.04 878.958 1065.66 877.716 1062.22L878.362 1061.03Z"/><path fill="#0B0C0D" transform="scale(0.50459 0.50459)" d="M880.085 984.704L882.001 988.198C878.293 998.206 879.22 988.719 880.085 984.704Z"/><path fill="#129A6B" transform="scale(0.50459 0.50459)" d="M880.419 984.107C881.858 982.508 881.788 982.624 882.512 980.643C884.048 991.729 888.466 1002.23 890.291 1013.99L891.01 1018.38C898.191 1003.14 901.21 999.732 914.098 988.525C917.358 989.704 920.269 989.862 923.075 991.34C901.293 997.798 894.476 1011.58 894.244 1033.13C891.427 1031.39 895.67 1011.17 889.032 1021.99C889.64 1021 888.45 1033.87 888.108 1035.55C887.572 1014.4 887.727 1008.81 882.001 988.198L880.085 984.704L880.419 984.107Z"/><path fill="#1A7A57" transform="scale(0.50459 0.50459)" d="M890.032 949.465C891.708 948.119 893.423 946.823 895.174 945.576C899.824 942.244 910.085 934.123 914.437 931.952L915.48 932.901C908.927 939.889 898.442 945.742 891.091 952.27L890.032 949.465Z"/><path fill="#131217" transform="scale(0.50459 0.50459)" d="M914.437 931.952C914.966 928.157 913.427 927.787 913.117 924.494C911.305 905.208 933.4 895.705 945.862 911.156C946.293 911.442 946.723 911.729 947.154 912.015L947.693 913.36C947.377 915.969 948.493 917.956 949.016 920.568C949.542 923.201 955.938 922.555 958.155 922.776C967.227 922.717 974.097 923.521 982.835 924.065C991.794 927.02 993.966 927.721 1003.06 929.763C1007.21 932.835 1012.38 928.208 1013.42 934.981C1006.56 938.618 1002.24 941.727 999.805 949.496C997.591 956.576 999.446 957.197 1001.42 962.983L1000.65 966.059C995.829 963.912 991.674 962.924 986.465 963.144C978.301 968.574 978.489 971.659 979.362 980.966L978.25 981.68C969.805 971.965 955.777 984.622 950.809 992.158L950.135 993.164C949.46 995.211 949.1 996.849 948.126 998.771L946.857 999.602C945.174 1000.66 944.764 1002.25 944.042 1004.02C937.725 991.759 934.357 994.162 923.075 991.34C920.269 989.862 917.358 989.704 914.098 988.525C921.672 979.893 918.992 971.745 920.353 961.006C921.313 953.435 922.709 946.11 924.096 938.603C921.526 936.765 918.255 933.701 915.48 932.901L914.437 931.952Z"/><path fill="#0D9E67" transform="scale(0.50459 0.50459)" d="M914.437 931.952C914.966 928.157 913.427 927.787 913.117 924.494C911.305 905.208 933.4 895.705 945.862 911.156C946.293 911.442 946.723 911.729 947.154 912.015L947.693 913.36C947.377 915.969 948.493 917.956 949.016 920.568C949.542 923.201 955.938 922.555 958.155 922.776C955.245 923.09 951.444 922.738 949.12 924.235L948.483 926.108C945.166 936.195 939.302 938.139 930.39 940.709L929.668 942.333C920.783 961.784 918.741 988.64 947.521 986.957L947.726 988.485C947.962 991.235 947.929 991.486 950.135 993.164C949.46 995.211 949.1 996.849 948.126 998.771L946.857 999.602C945.174 1000.66 944.764 1002.25 944.042 1004.02C937.725 991.759 934.357 994.162 923.075 991.34C920.269 989.862 917.358 989.704 914.098 988.525C921.672 979.893 918.992 971.745 920.353 961.006C921.313 953.435 922.709 946.11 924.096 938.603C921.526 936.765 918.255 933.701 915.48 932.901L914.437 931.952Z"/><path fill="#131217" transform="scale(0.50459 0.50459)" d="M926.698 912.295C930.239 910.674 934.382 911.12 937.497 913.456C940.613 915.792 942.201 919.645 941.636 923.498C941.071 927.35 938.445 930.586 934.79 931.93C929.431 933.901 923.473 931.285 921.297 926.006C919.122 920.727 921.507 914.672 926.698 912.295Z"/><path fill="#0D9E67" transform="scale(0.50459 0.50459)" d="M977.433 926.795C979.854 925.128 979.988 924.848 982.835 924.065C991.794 927.02 993.966 927.721 1003.06 929.763C1007.21 932.835 1012.38 928.208 1013.42 934.981C1006.56 938.618 1002.24 941.727 999.805 949.496C997.591 956.576 999.446 957.197 1001.42 962.983L1000.65 966.059C995.829 963.912 991.674 962.924 986.465 963.144C986.147 962.057 985.835 960.967 985.529 959.877C998.072 943 997.652 935.566 977.433 926.795Z"/><path fill="#129A6B" transform="scale(0.50459 0.50459)" d="M947.521 986.957C963.838 977.91 971.767 972.51 985.529 959.877C985.835 960.967 986.147 962.057 986.465 963.144C978.301 968.574 978.489 971.659 979.362 980.966L978.25 981.68C969.805 971.965 955.777 984.622 950.809 992.158L950.135 993.164C947.929 991.486 947.962 991.235 947.726 988.485L947.521 986.957Z"/><path fill="#129A6B" transform="scale(0.50459 0.50459)" d="M958.155 922.776C967.227 922.717 974.097 923.521 982.835 924.065C979.988 924.848 979.854 925.128 977.433 926.795C976.704 926.681 975.268 926.481 974.488 926.257C965.998 923.813 957.443 926.181 949.12 924.235C951.444 922.738 955.245 923.09 958.155 922.776Z"/><path fill="#131217" transform="scale(0.50459 0.50459)" d="M1025.27 1126.68C1036.09 1130.05 1039.41 1130.75 1043.79 1142.18L1046.4 1142.02C1047.55 1144.62 1048.84 1146.93 1049.94 1149.44C1054.91 1154.45 1055.56 1154.88 1062.37 1157.17C1069.83 1156.15 1093.41 1156.43 1095.85 1147.06C1097.12 1151.93 1099.18 1154.96 1102.68 1148.91C1102.58 1151.75 1103.66 1154.52 1105.66 1156.55C1103.78 1159.18 1103.45 1159.56 1100.99 1161.71C1100.91 1161.64 1099.67 1160.5 1099.41 1160.67C1084.89 1170.29 1069.68 1178.93 1055.07 1188.51C1050.88 1191.26 1046.93 1194.47 1042.22 1196.16L1042.37 1196.64C1053 1230.42 998.63 1231.23 1007.63 1196.89C1007.95 1195.99 1008.24 1195.04 1008.54 1194.13L1011.91 1189.28C1008.02 1182.81 1003.44 1176.38 999.653 1169.86L1001.89 1167.79C998.117 1160.04 997.652 1156.19 998.358 1147.68C1002.61 1132.79 1011.39 1129.51 1025.27 1126.68Z"/><path fill="#0D9E67" transform="scale(0.50459 0.50459)" d="M1015.98 1186.69C1028.74 1183.86 1024.12 1184.91 1036.54 1186.5L1037.69 1188.82C1038.41 1189.63 1039.13 1190.45 1039.85 1191.27L1042.1 1195.21L1042.22 1196.16L1042.37 1196.64C1053 1230.42 998.63 1231.23 1007.63 1196.89C1007.95 1195.99 1008.24 1195.04 1008.54 1194.13L1011.91 1189.28C1013.61 1187.36 1013.46 1187.49 1015.98 1186.69Z"/><path fill="#131217" transform="scale(0.50459 0.50459)" d="M1021.02 1193.44C1024.72 1191.85 1029 1192.37 1032.2 1194.82C1035.41 1197.26 1037.06 1201.24 1036.51 1205.23C1035.96 1209.23 1033.31 1212.62 1029.56 1214.11C1023.88 1216.37 1017.43 1213.64 1015.09 1207.99C1012.75 1202.33 1015.39 1195.85 1021.02 1193.44Z"/><path fill="#131217" transform="scale(0.50459 0.50459)" d="M1095.85 1147.06C1097.12 1151.93 1099.18 1154.96 1102.68 1148.91C1102.58 1151.75 1103.66 1154.52 1105.66 1156.55C1103.78 1159.18 1103.45 1159.56 1100.99 1161.71C1100.91 1161.64 1099.67 1160.5 1099.41 1160.67C1084.89 1170.29 1069.68 1178.93 1055.07 1188.51C1050.88 1191.26 1046.93 1194.47 1042.22 1196.16L1042.1 1195.21L1039.85 1191.27C1039.13 1190.45 1038.41 1189.63 1037.69 1188.82C1044.24 1181.19 1047.28 1175.91 1055.22 1169.83C1059.47 1168.15 1065.13 1165.93 1069.99 1165.6C1069.76 1165.6 1072.54 1166.09 1072.71 1165.61C1073.45 1163.44 1073.27 1161.58 1074.09 1159.23C1073.29 1157.2 1066.01 1158.23 1062.37 1157.17C1069.83 1156.15 1093.41 1156.43 1095.85 1147.06Z"/><path fill="#1A7A57" transform="scale(0.50459 0.50459)" d="M1095.85 1147.06C1097.12 1151.93 1099.18 1154.96 1102.68 1148.91C1102.58 1151.75 1103.66 1154.52 1105.66 1156.55C1103.78 1159.18 1103.45 1159.56 1100.99 1161.71C1100.91 1161.64 1099.67 1160.5 1099.41 1160.67C1084.89 1170.29 1069.68 1178.93 1055.07 1188.51C1050.88 1191.26 1046.93 1194.47 1042.22 1196.16L1042.1 1195.21C1044.04 1193.43 1045.78 1191.94 1047.82 1190.27C1058.42 1186.74 1085.41 1164.99 1097.14 1159.45C1098.91 1158.61 1098.39 1153.08 1092.52 1155.27C1088.15 1156.89 1078.91 1159.14 1074.09 1159.23C1073.29 1157.2 1066.01 1158.23 1062.37 1157.17C1069.83 1156.15 1093.41 1156.43 1095.85 1147.06Z"/><path fill="#0B0C0D" transform="scale(0.50459 0.50459)" d="M1039.85 1191.27C1042.28 1186.23 1043.45 1187.27 1047.82 1190.27C1045.78 1191.94 1044.04 1193.43 1042.1 1195.21L1039.85 1191.27Z"/><path fill="#0D9E67" transform="scale(0.50459 0.50459)" d="M1047.87 1151.38L1049.94 1149.44C1054.91 1154.45 1055.56 1154.88 1062.37 1157.17C1066.01 1158.23 1073.29 1157.2 1074.09 1159.23C1073.27 1161.58 1073.45 1163.44 1072.71 1165.61C1072.54 1166.09 1069.76 1165.6 1069.99 1165.6C1065.13 1165.93 1059.47 1168.15 1055.22 1169.83C1047.66 1168.94 1051.59 1165.87 1050.37 1159.72C1049.52 1156.78 1048.97 1154.23 1047.87 1151.38Z"/><path fill="#129A6B" transform="scale(0.50459 0.50459)" d="M1001.89 1167.79C1007.12 1176.14 1009.62 1179.2 1015.98 1186.69C1013.46 1187.49 1013.61 1187.36 1011.91 1189.28C1008.02 1182.81 1003.44 1176.38 999.653 1169.86L1001.89 1167.79Z"/><path fill="#129A6B" transform="scale(0.50459 0.50459)" d="M1050.37 1159.72C1051.59 1165.87 1047.66 1168.94 1055.22 1169.83C1047.28 1175.91 1044.24 1181.19 1037.69 1188.82L1036.54 1186.5C1044.51 1174.2 1048.05 1176.52 1050.37 1159.72Z"/><path fill="#129A6B" transform="scale(0.50459 0.50459)" d="M1046.4 1142.02C1047.55 1144.62 1048.84 1146.93 1049.94 1149.44L1047.87 1151.38C1046.58 1148.4 1045.17 1145.09 1043.79 1142.18L1046.4 1142.02Z"/><path fill="#131217" transform="scale(0.50459 0.50459)" d="M1009.22 873.971C1008.01 867.996 1006.43 860.193 1010.73 855.394C1026.91 837.296 1049.14 851.066 1041.56 875.175C1040.85 875.939 1040.19 876.586 1039.45 877.314C1038.95 878.377 1038.57 879.08 1037.98 880.151C1037.08 883.566 1037.25 884.158 1035.17 886.824C1035.12 889.087 1035.2 891.03 1035.29 893.283C1035.81 894.774 1037.24 921.888 1036.45 922.505C1028.94 928.359 1012.39 927.924 1003.06 929.763C993.966 927.721 991.794 927.02 982.835 924.065C974.097 923.521 967.227 922.717 958.155 922.776C955.938 922.555 949.542 923.201 949.016 920.568C948.493 917.956 947.377 915.969 947.693 913.36L947.154 912.015C951.264 908.187 960.797 903.903 965.91 900.703C980.292 891.699 995.419 883.859 1009.22 873.971Z"/><path fill="#0D9E67" transform="scale(0.50459 0.50459)" d="M1009.22 873.971C1008.01 867.996 1006.43 860.193 1010.73 855.394C1026.91 837.296 1049.14 851.066 1041.56 875.175C1040.85 875.939 1040.19 876.586 1039.45 877.314C1038.95 878.377 1038.57 879.08 1037.98 880.151C1037.08 883.566 1037.25 884.158 1035.17 886.824L1033.8 885.096C1029.74 878.872 1021.33 888.285 1012.23 876.673L1011.28 875.517C1010.44 874.814 1010.14 874.572 1009.22 873.971Z"/><path fill="#131217" transform="scale(0.50459 0.50459)" d="M1023.02 855.414C1028.51 853.97 1034.15 857.212 1035.66 862.687C1037.18 868.163 1034.01 873.839 1028.55 875.424C1024.96 876.467 1021.08 875.497 1018.41 872.885C1015.73 870.272 1014.66 866.421 1015.62 862.805C1016.57 859.188 1019.4 856.364 1023.02 855.414Z"/><path fill="#1A7A57" transform="scale(0.50459 0.50459)" d="M1009.22 873.971C1010.14 874.572 1010.44 874.814 1011.28 875.517C1010.53 876.051 1009.77 876.557 1009.01 877.06C1004.18 880.239 999.401 883.42 994.453 886.424C993.114 887.237 991.728 888.007 990.372 888.795L988.75 889.717C975.741 897.239 961.216 907.125 947.693 913.36L947.154 912.015C951.264 908.187 960.797 903.903 965.91 900.703C980.292 891.699 995.419 883.859 1009.22 873.971Z"/><path fill="#0B0C0D" transform="scale(0.50459 0.50459)" d="M1033.8 885.096L1035.17 886.824C1035.12 889.087 1035.2 891.03 1035.29 893.283C1035.07 894.05 1034.98 894.904 1034.5 895.564C1034.12 896.058 1033.42 895.937 1033.1 895.457C1032.07 893.942 1033.32 892.114 1033.13 890.495C1032.91 888.509 1033.2 886.98 1033.8 885.096Z"/><path fill="#131217" transform="scale(0.50459 0.50459)" d="M1144.07 1049.43C1149.88 1050.4 1150.19 1050.46 1154.67 1053.89C1156.95 1060.85 1162.33 1063.39 1157.77 1069.23C1159.56 1072.36 1159.75 1073.08 1162.96 1074.22C1165.55 1073.13 1168.46 1073.13 1171.05 1074.22C1172.48 1071.85 1173.64 1070.57 1175.45 1068.45C1197.46 1088.53 1175.94 1109.58 1156.5 1098.34C1147.44 1110.47 1136.48 1125.86 1126.86 1137.24C1126.49 1136.76 1126.13 1136.28 1125.76 1135.79C1120.54 1133.13 1115.33 1133.15 1112.21 1129.47L1110.46 1130.49C1109.29 1119.57 1106.51 1116.44 1105.35 1108.94C1101.27 1104.08 1101.55 1104.16 1096.03 1101.56C1099.49 1100.26 1099.19 1097.19 1096.07 1095.31C1100.19 1091.05 1100.52 1089.76 1103.44 1084.73C1103.4 1082.52 1103.98 1080.64 1104.52 1078.5C1105.04 1081.36 1104.79 1081.44 1107.22 1083.05C1110.48 1073.6 1111.25 1072.14 1118.51 1065.11L1119.08 1064.72C1127.28 1059.14 1134.98 1053.34 1144.07 1049.43Z"/><path fill="#0D9E67" transform="scale(0.50459 0.50459)" d="M1155.82 1097.57C1147.12 1089.29 1146.92 1075.15 1157.77 1069.23C1159.56 1072.36 1159.75 1073.08 1162.96 1074.22C1165.55 1073.13 1168.46 1073.13 1171.05 1074.22C1172.48 1071.85 1173.64 1070.57 1175.45 1068.45C1197.46 1088.53 1175.94 1109.58 1156.5 1098.34C1156.23 1097.95 1156.21 1097.82 1155.82 1097.57Z"/><path fill="#131217" transform="scale(0.50459 0.50459)" d="M1162.96 1074.22C1165.55 1073.13 1168.46 1073.13 1171.05 1074.22C1175.62 1076.14 1178.19 1081.02 1177.21 1085.87C1176.23 1090.73 1171.96 1094.22 1167.01 1094.22C1162.06 1094.22 1157.79 1090.73 1156.81 1085.88C1155.82 1081.02 1158.4 1076.15 1162.96 1074.22Z"/><path fill="#0D9E67" transform="scale(0.50459 0.50459)" d="M1103.44 1084.73C1105.44 1087.84 1107.14 1105.7 1105.35 1108.94C1101.27 1104.08 1101.55 1104.16 1096.03 1101.56C1099.49 1100.26 1099.19 1097.19 1096.07 1095.31C1100.19 1091.05 1100.52 1089.76 1103.44 1084.73Z"/><path fill="#129A6B" transform="scale(0.50459 0.50459)" d="M1104.52 1078.5C1105.04 1081.36 1104.79 1081.44 1107.22 1083.05C1106.81 1089.12 1106.53 1095.58 1107.6 1101.59C1109.15 1110.36 1113.03 1120.53 1112.21 1129.47L1110.46 1130.49C1109.29 1119.57 1106.51 1116.44 1105.35 1108.94C1107.14 1105.7 1105.44 1087.84 1103.44 1084.73C1103.4 1082.52 1103.98 1080.64 1104.52 1078.5Z"/><path fill="#1A7A57" transform="scale(0.50459 0.50459)" d="M1155.82 1097.57C1156.21 1097.82 1156.23 1097.95 1156.5 1098.34C1147.44 1110.47 1136.48 1125.86 1126.86 1137.24C1126.49 1136.76 1126.13 1136.28 1125.76 1135.79C1133.66 1123.77 1145.67 1107.7 1155.82 1097.57Z"/><path fill="#131217" transform="scale(0.50459 0.50459)" d="M1041.56 875.175C1060.89 886.354 1082.29 900.103 1102.16 909.812C1109.74 910.01 1118.74 896.606 1130.9 908.12C1143.46 920.022 1135.12 924.836 1133.2 934.073C1132.32 934.605 1132.25 934.715 1131.45 935.427C1120.2 944.318 1112.4 935.593 1110.51 943.761C1108.64 947.938 1110.48 948.414 1106.88 951.034C1103.08 943.935 1100.71 941.675 1094.01 937.409C1081.04 932.026 1079.97 933.769 1067.14 935.685C1066.3 931.954 1065.31 934.309 1061.94 932.81C1037.06 927.891 1039.11 917.309 1039.01 894.5C1038.99 889.917 1038.3 884.802 1037.98 880.151C1038.57 879.08 1038.95 878.377 1039.45 877.314C1040.19 876.586 1040.85 875.939 1041.56 875.175Z"/><path fill="#0D9E67" transform="scale(0.50459 0.50459)" d="M1102.16 909.812C1109.74 910.01 1118.74 896.606 1130.9 908.12C1143.46 920.022 1135.12 924.836 1133.2 934.073C1132.32 934.605 1132.25 934.715 1131.45 935.427C1120.2 944.318 1112.4 935.593 1110.51 943.761C1108.64 947.938 1110.48 948.414 1106.88 951.034C1103.08 943.935 1100.71 941.675 1094.01 937.409C1098.26 934.697 1097.98 935.278 1102.04 933.214C1103.59 932.216 1103.94 931.101 1102.98 929.536C1097.8 921.1 1106.21 916.905 1100.29 911.683C1100.91 911.059 1101.54 910.436 1102.16 909.812Z"/><path fill="#131217" transform="scale(0.50459 0.50459)" d="M1115.01 912.211C1118.52 910.693 1122.58 911.188 1125.62 913.505C1128.67 915.822 1130.23 919.602 1129.7 923.392C1129.17 927.182 1126.64 930.393 1123.08 931.792C1117.7 933.906 1111.62 931.316 1109.42 925.972C1107.21 920.628 1109.7 914.505 1115.01 912.211Z"/><path fill="#1A7A57" transform="scale(0.50459 0.50459)" d="M1041.56 875.175C1060.89 886.354 1082.29 900.103 1102.16 909.812C1101.54 910.436 1100.91 911.059 1100.29 911.683C1093.51 909.65 1076.48 897.557 1068.73 893.599C1058.83 888.532 1049.98 882.253 1039.45 877.314C1040.19 876.586 1040.85 875.939 1041.56 875.175Z"/><path fill="#129A6B" transform="scale(0.50459 0.50459)" d="M1061.94 932.81C1069.5 931.312 1094.38 931.303 1102.04 933.214C1097.98 935.278 1098.26 934.697 1094.01 937.409C1081.04 932.026 1079.97 933.769 1067.14 935.685C1066.3 931.954 1065.31 934.309 1061.94 932.81Z"/><path fill="#131217" transform="scale(0.50459 0.50459)" d="M923.075 991.34C934.357 994.162 937.725 991.759 944.042 1004.02L944.623 1005.85C948.546 1017.54 947.192 1024.77 947.584 1036.09C948.608 1035.58 948.472 1035.52 949.456 1035.53L951.454 1037.15L951.998 1037.96C946.344 1052.15 948.974 1059.43 960.961 1068.13C947.097 1064.3 946.337 1062.18 937.837 1074.29C936.307 1078.14 938.162 1078.42 934.745 1081.04C931.026 1073.74 928.086 1071.05 921.662 1066.07L920.994 1062.81C917.907 1061.22 911.43 1057.98 908.38 1056.6C900.237 1048.94 896.749 1044.21 894.244 1033.13C894.476 1011.58 901.293 997.798 923.075 991.34Z"/><path fill="#0D9E67" transform="scale(0.50459 0.50459)" d="M947.584 1036.09C948.608 1035.58 948.472 1035.52 949.456 1035.53L951.454 1037.15L951.998 1037.96C946.344 1052.15 948.974 1059.43 960.961 1068.13C947.097 1064.3 946.337 1062.18 937.837 1074.29C936.307 1078.14 938.162 1078.42 934.745 1081.04C931.026 1073.74 928.086 1071.05 921.662 1066.07L920.994 1062.81C938.541 1062.06 943.984 1052.3 947.584 1036.09Z"/><path fill="#131217" transform="scale(0.50459 0.50459)" d="M1095.11 1024.62C1098.28 1019.17 1096.79 996.864 1115.01 999.856C1125.01 1001.5 1133.44 1010.38 1138.63 1018.68C1139.2 1015.93 1139.26 1015.55 1140.31 1013.02C1144.68 1015.88 1145.34 1016.51 1150.21 1018.47C1156.85 1018.79 1153.22 1027.44 1156.09 1030.82C1156.67 1037.43 1156.65 1044.22 1158.22 1050.52L1158.5 1051.71C1157.03 1052.64 1156.21 1053.09 1154.67 1053.89C1150.19 1050.46 1149.88 1050.4 1144.07 1049.43C1134.98 1053.34 1127.28 1059.14 1119.08 1064.72L1118.51 1065.11C1111.25 1072.14 1110.48 1073.6 1107.22 1083.05C1104.79 1081.44 1105.04 1081.36 1104.52 1078.5C1102.49 1069.89 1100.31 1065.8 1090.82 1064.87L1088.57 1061.85C1092.77 1058.09 1093.86 1057.08 1095.99 1051.83C1096.96 1052.68 1097.89 1053.5 1098.89 1054.31C1095.83 1041.84 1095.18 1037.57 1095.11 1024.62Z"/><path fill="#0D9E67" transform="scale(0.50459 0.50459)" d="M1140.31 1013.02C1144.68 1015.88 1145.34 1016.51 1150.21 1018.47C1156.85 1018.79 1153.22 1027.44 1156.09 1030.82C1156.67 1037.43 1156.65 1044.22 1158.22 1050.52L1158.5 1051.71C1157.03 1052.64 1156.21 1053.09 1154.67 1053.89C1150.19 1050.46 1149.88 1050.4 1144.07 1049.43C1134.98 1053.34 1127.28 1059.14 1119.08 1064.72L1118.51 1065.11C1111.25 1072.14 1110.48 1073.6 1107.22 1083.05C1104.79 1081.44 1105.04 1081.36 1104.52 1078.5C1102.49 1069.89 1100.31 1065.8 1090.82 1064.87L1088.57 1061.85C1092.77 1058.09 1093.86 1057.08 1095.99 1051.83C1096.96 1052.68 1097.89 1053.5 1098.89 1054.31L1099.48 1055.34L1100.09 1056.43C1104.41 1064.09 1107.95 1063.66 1115.95 1062.53C1119.21 1059.27 1131.39 1051.8 1136.79 1046.99C1143.47 1037.98 1142.83 1028.59 1138.63 1018.68C1139.2 1015.93 1139.26 1015.55 1140.31 1013.02Z"/><path fill="#131217" transform="scale(0.50459 0.50459)" d="M908.38 1056.6C911.43 1057.98 917.907 1061.22 920.994 1062.81L921.662 1066.07C928.086 1071.05 931.026 1073.74 934.745 1081.04C937.521 1092.77 945.083 1102.6 940.434 1115.78C938.378 1121.62 937.289 1125 937.121 1131.1C927.993 1130.96 925.789 1132.37 919.136 1138L917.882 1139.39C909.021 1129.23 895.054 1111.6 887.4 1100.32L889.153 1099.2C898.018 1091.66 902.337 1079.44 890.63 1069.68C884.862 1064.88 890.772 1061.02 894.477 1056.91C896.045 1055.17 901.973 1057.32 903.47 1057.68C905.11 1057.33 906.747 1056.97 908.38 1056.6Z"/><path fill="#1A7A57" transform="scale(0.50459 0.50459)" d="M887.4 1100.32L889.153 1099.2C893.848 1104.78 898.305 1110.55 902.513 1116.5C907.546 1123.55 913.485 1131.48 919.136 1138L917.882 1139.39C909.021 1129.23 895.054 1111.6 887.4 1100.32Z"/><path fill="#1A7A57" transform="scale(0.50459 0.50459)" d="M908.38 1056.6C911.43 1057.98 917.907 1061.22 920.994 1062.81L921.662 1066.07C915.97 1063.37 908.818 1060.4 903.47 1057.68C905.11 1057.33 906.747 1056.97 908.38 1056.6Z"/><path fill="#131217" transform="scale(0.50459 0.50459)" d="M1096.03 1101.56C1101.55 1104.16 1101.27 1104.08 1105.35 1108.94C1106.51 1116.44 1109.29 1119.57 1110.46 1130.49C1103.1 1135.98 1098.19 1136.51 1095.85 1147.06C1093.41 1156.43 1069.83 1156.15 1062.37 1157.17C1055.56 1154.88 1054.91 1154.45 1049.94 1149.44C1048.84 1146.93 1047.55 1144.62 1046.4 1142.02C1044.52 1129.92 1045.03 1125.64 1055.12 1117.57C1068.36 1106.98 1079.29 1102.58 1096.03 1101.56Z"/><path fill="#131217" transform="scale(0.50459 0.50459)" d="M1067.14 935.685C1079.97 933.769 1081.04 932.026 1094.01 937.409C1100.71 941.675 1103.08 943.935 1106.88 951.034C1108.05 956.755 1110.41 961.752 1110.78 968.038C1111.04 972.418 1110.79 977.624 1111.56 981.787C1109.81 995.978 1104.66 1001.41 1090.99 995.594C1088.58 992.665 1085.01 990.144 1081.98 987.875C1079.82 986.262 1077.55 984.737 1075.54 982.942C1075.11 982.559 1074.99 982.068 1075.02 981.505C1075.28 976.675 1056.69 966.565 1053.24 948.782L1053.42 948.326C1056.66 939.887 1058.42 939.819 1067.14 935.685Z"/><path fill="#0D9E67" transform="scale(0.50459 0.50459)" d="M937.121 1131.1L938.214 1130.76C952.394 1136.3 944.899 1146.75 958.076 1150.71C971.766 1154.82 983.938 1154.43 995.394 1145.55C996.394 1146.24 997.382 1146.95 998.358 1147.68C997.652 1156.19 998.117 1160.04 1001.89 1167.79L999.653 1169.86C1003.44 1176.38 1008.02 1182.81 1011.91 1189.28L1008.54 1194.13C1008.24 1195.04 1007.95 1195.99 1007.63 1196.89C997.723 1190.35 954.058 1166.64 948.746 1160.75C941.425 1162.85 937.342 1170.39 927.198 1165.67C914.827 1159.9 913.222 1151.21 917.882 1139.39L919.136 1138C925.789 1132.37 927.993 1130.96 937.121 1131.1Z"/><path fill="#131217" transform="scale(0.50459 0.50459)" d="M949.483 1159.78C947.159 1157.27 949.325 1157.16 950.271 1154.07C951.403 1150.39 955.23 1153.27 957.748 1154.02C966.448 1156.6 976.032 1161.03 985.002 1162.06C992.664 1162.93 994.362 1165.27 999.653 1169.86C1003.44 1176.38 1008.02 1182.81 1011.91 1189.28L1008.54 1194.13C1008.24 1195.04 1007.95 1195.99 1007.63 1196.89C997.723 1190.35 954.058 1166.64 948.746 1160.75L949.483 1159.78Z"/><path fill="#1A7A57" transform="scale(0.50459 0.50459)" d="M949.483 1159.78C957.827 1163.29 988.179 1183.61 993.933 1185.45C997.249 1187.79 998.182 1188.35 1001.78 1190.1C1003.57 1192.07 1006.26 1192.88 1008.54 1194.13C1008.24 1195.04 1007.95 1195.99 1007.63 1196.89C997.723 1190.35 954.058 1166.64 948.746 1160.75L949.483 1159.78Z"/><path fill="#0B0C0D" transform="scale(0.50459 0.50459)" d="M993.933 1185.45C996.223 1184.29 1006.97 1184.23 1001.78 1190.1C998.182 1188.35 997.249 1187.79 993.933 1185.45Z"/><path fill="#131217" transform="scale(0.50459 0.50459)" d="M930.114 1139.32C935.45 1137.57 941.204 1140.43 943.017 1145.75C944.83 1151.07 942.027 1156.85 936.731 1158.73C933.252 1159.96 929.38 1159.22 926.592 1156.8C923.805 1154.38 922.533 1150.65 923.262 1147.03C923.99 1143.42 926.607 1140.47 930.114 1139.32Z"/><path fill="#131217" transform="scale(0.50459 0.50459)" d="M938.214 1130.76C939.305 1128.07 943.329 1117.51 945.106 1116.03C957.003 1106.1 979.214 1112.85 990.391 1121.12C993.486 1123.41 996.916 1124.26 999.267 1126.88C1003.16 1133.7 998.852 1140.57 995.394 1145.55C983.938 1154.43 971.766 1154.82 958.076 1150.71C944.899 1146.75 952.394 1136.3 938.214 1130.76Z"/><path fill="#131217" transform="scale(0.50459 0.50459)" d="M1013.42 934.981L1014.53 934.627L1015.59 934.267C1031.8 928.942 1042.56 937.873 1050.51 951.116L1051.27 952.354C1053.12 967.501 1044.53 971.141 1030.49 972.764C1016.55 974.374 1011.37 972.117 1001.42 962.983C999.446 957.197 997.591 956.576 999.805 949.496C1002.24 941.727 1006.56 938.618 1013.42 934.981Z"/><path fill="#131217" transform="scale(0.50459 0.50459)" d="M937.837 1074.29C946.337 1062.18 947.097 1064.3 960.961 1068.13L962.3 1068.44C963.874 1068.77 964.584 1069.82 965.611 1071C971.49 1081.24 989.841 1088.74 980.437 1103.06L979.058 1103.85C977.715 1104.67 976.329 1105.33 974.898 1105.97L973.695 1106.53C958.445 1108.1 949.67 1105.45 941.933 1091.55C938.366 1085.15 939.219 1081.09 937.837 1074.29Z"/><path fill="#131217" transform="scale(0.50459 0.50459)" d="M1090.82 1064.87C1100.31 1065.8 1102.49 1069.89 1104.52 1078.5C1103.98 1080.64 1103.4 1082.52 1103.44 1084.73C1100.52 1089.76 1100.19 1091.05 1096.07 1095.31C1089.74 1099.44 1070.1 1106.69 1066.43 1095.65C1062.52 1083.9 1077.59 1068.84 1088.92 1065.48L1090.82 1064.87Z"/><path fill="#0B0C0D" transform="scale(0.50459 0.50459)" d="M950.135 993.164L950.809 992.158C955.777 984.622 969.805 971.965 978.25 981.68C978.861 984.4 978.939 984.639 980.052 987.282C981.581 993.791 978.639 996.92 975.224 1002.23C944.592 1010.43 963.243 1019.77 951.454 1037.15L949.456 1035.53C948.472 1035.52 948.608 1035.58 947.584 1036.09C947.192 1024.77 948.546 1017.54 944.623 1005.85L944.042 1004.02C944.764 1002.25 945.174 1000.66 946.857 999.602L948.126 998.771C949.1 996.849 949.46 995.211 950.135 993.164Z"/><path fill="#1A7A57" transform="scale(0.50459 0.50459)" d="M944.042 1004.02C944.764 1002.25 945.174 1000.66 946.857 999.602L948.126 998.771C948.131 1008.01 950.577 1028.59 949.456 1035.53C948.472 1035.52 948.608 1035.58 947.584 1036.09C947.192 1024.77 948.546 1017.54 944.623 1005.85L944.042 1004.02Z"/><path fill="#0B0C0D" transform="scale(0.50459 0.50459)" d="M986.465 963.144C991.674 962.924 995.829 963.912 1000.65 966.059C1027.19 985.185 989.537 999.507 982.073 987.761L980.052 987.282C978.939 984.639 978.861 984.4 978.25 981.68L979.362 980.966C978.489 971.659 978.301 968.574 986.465 963.144Z"/><path fill="#0C4D33" transform="scale(0.50459 0.50459)" d="M979.362 980.966C980.713 983.293 981.2 985.183 982.073 987.761L980.052 987.282C978.939 984.639 978.861 984.4 978.25 981.68L979.362 980.966Z"/><path fill="#0B0C0D" transform="scale(0.50459 0.50459)" d="M951.998 1037.96C958.756 1031.48 957.343 1031.15 964.175 1035.09C966.088 1038.41 967.206 1040.52 968.811 1043.99C968.917 1046 970.14 1050.75 970.683 1052.85C971.036 1058.67 969.933 1061.8 972.28 1067.13C974.657 1072.52 968.449 1071.88 965.611 1071C964.584 1069.82 963.874 1068.77 962.3 1068.44L960.961 1068.13C948.974 1059.43 946.344 1052.15 951.998 1037.96Z"/><path fill="#131217" transform="scale(0.50459 0.50459)" d="M1088.57 1061.85C1079.66 1067.86 1067.01 1074.69 1072.62 1057.98C1074.53 1052.29 1078.09 1040.73 1085 1039.8C1087.52 1039.44 1090.08 1040.19 1092.01 1041.86C1095.08 1044.48 1095.68 1048.09 1095.99 1051.83C1093.86 1057.08 1092.77 1058.09 1088.57 1061.85Z"/><path fill="#0B0C0D" transform="scale(0.50459 0.50459)" d="M1005.7 1081.17C1005.73 1081.15 1006.23 1080.78 1006.3 1080.69C1006.75 1080.14 1006.37 1079.27 1006.29 1078.57C1006.15 1077.34 1005.95 1076.2 1006.19 1074.97C1006.33 1074.28 1006.65 1073.49 1007.31 1073.14C1008.07 1072.74 1008.94 1072.95 1009.69 1073.23C1009.84 1073.28 1009.97 1073.37 1010.11 1073.43C1012.08 1074.39 1013.83 1075.34 1015.57 1076.68C1014.52 1078.42 1012.14 1081.36 1011.2 1082.96C1010.92 1083.44 1013.51 1085.75 1013.57 1085.74C1015.2 1086.84 1015.54 1089.85 1016.58 1090.83C1021.13 1089.49 1028 1082.27 1033.04 1090.49C1036.96 1096.88 1029.23 1102.97 1023.05 1100.45C1017.12 1098.03 1018.33 1095.4 1016.3 1093.06C1013.44 1092.12 998.383 1098.68 997.873 1087.01C997.816 1085.46 998.408 1083.95 999.505 1082.86C1000.44 1081.92 1004.33 1081.46 1005.7 1081.17Z"/><path fill="#0B0C0D" transform="scale(0.50459 0.50459)" d="M1012.61 991.576C1010.19 981.22 1014.04 977.247 1024.56 975.315C1042.67 971.986 1046.95 981.249 1031.3 991.576C1028.88 991.571 1028.77 991.505 1026.53 992.093C1022.63 993.054 1020.83 993.628 1016.9 993.952C1014.91 992.579 1014.9 992.557 1012.61 991.576Z"/><path fill="#0B0C0D" transform="scale(0.50459 0.50459)" d="M969.745 1031.08C962.694 1029.86 956.879 1028.31 957.772 1020C959.102 1007.62 971.133 1004.94 979.134 1014.12C979.245 1017.6 979.177 1019.11 978.856 1022.54C975.756 1023.83 976.162 1024.34 974.424 1027.34C972.748 1028.76 971.532 1029.76 969.745 1031.08Z"/><path fill="#0B0C0D" transform="scale(0.50459 0.50459)" d="M979.778 1014.15C977.241 1007.14 977.212 992.115 987.442 997.077C991.23 998.915 995.928 993.998 998.659 999.053L999.355 1000.24C994.882 1006.65 992.307 1012.5 985.136 1016.49C984.021 1016.5 983.997 1016.36 982.836 1015.82C981.921 1015.29 980.738 1014.53 979.778 1014.15Z"/><path fill="#1A7A57" transform="scale(0.50459 0.50459)" d="M982.836 1015.82C985.151 1011.52 986.692 1009.92 985.368 1004.99C984.909 1003.28 985.413 999.741 987.582 999.313C987.844 999.666 986.162 1004.9 988.066 1007.51C989.81 1009.9 985.722 1012.63 985.136 1016.49C984.021 1016.5 983.997 1016.36 982.836 1015.82Z"/><path fill="#0B0C0D" transform="scale(0.50459 0.50459)" d="M1050.94 1002.1C1051.52 1001.21 1052.11 1000.31 1052.69 999.419C1055.84 994.258 1063.51 998.653 1064.03 1003.53C1064.47 1007.64 1059.43 1008.21 1059.18 1011.96C1059.15 1012.61 1059.23 1013.65 1059.71 1014.15C1060.56 1013.85 1063.18 1008.84 1065.91 1013.05C1068.47 1016.99 1068.06 1021.56 1066.04 1025.66C1058.58 1022.07 1057.07 1012.19 1053.69 1009.9C1052.69 1007.32 1051.95 1004.67 1050.94 1002.1Z"/><path fill="#0B0C0D" transform="scale(0.50459 0.50459)" d="M1064.83 1040.28C1068.32 1038.9 1073.97 1037.93 1073.92 1042.45C1073.75 1061.34 1068.74 1056.29 1060.07 1053.76C1061.18 1049.11 1062.7 1044.57 1064.83 1040.28Z"/><path fill="#0B0C0D" transform="scale(0.50459 0.50459)" d="M987.651 1067.94C985.859 1071.24 981.744 1072.49 978.417 1070.74C975.09 1068.99 973.786 1064.9 975.492 1061.55C977.197 1058.2 981.278 1056.84 984.65 1058.5C986.325 1059.33 987.592 1060.8 988.158 1062.58C988.725 1064.36 988.541 1066.29 987.651 1067.94Z"/><path fill="#131217" transform="scale(0.50459 0.50459)" d="M1016.38 1076.87C1024.15 1073.2 1023.84 1073.16 1032.87 1073.99C1030.84 1080.12 1030.8 1087.08 1022.97 1084.35L1018.54 1082.8C1015.71 1081.84 1016.07 1079.16 1016.38 1076.87Z"/><path fill="#0B0C0D" transform="scale(0.50459 0.50459)" d="M1059.18 1056.09C1070.07 1058.05 1071.68 1067.95 1060.56 1068.52C1055.37 1068.78 1056.21 1068.98 1053.32 1064.16C1055.27 1061.29 1057.3 1058.92 1059.18 1056.09Z"/><path fill="#131217" transform="scale(0.50459 0.50459)" d="M1049.92 1066.2C1053.07 1068.04 1054.24 1070.55 1052.45 1073.93C1049.8 1078.95 1042.27 1079.08 1037.89 1079.4C1038.3 1071.62 1043.8 1070.51 1049.92 1066.2Z"/><path fill="#0B0C0D" transform="scale(0.50459 0.50459)" d="M1002.02 1000.09C1001.19 998.534 996.913 993.2 997.012 993.482C998.37 990.321 1008.43 991.191 1011.37 991.854L1012.61 991.576C1014.9 992.557 1014.91 992.579 1016.9 993.952L1014.75 995.76C1009.19 998.002 1008.05 999.615 1002.02 1000.09Z"/><path fill="#0C4D33" transform="scale(0.50459 0.50459)" d="M1012.61 991.576C1014.9 992.557 1014.91 992.579 1016.9 993.952L1014.75 995.76C1012.86 993.869 1012.79 993.914 1011.37 991.854L1012.61 991.576Z"/><path fill="#0B0C0D" transform="scale(0.50459 0.50459)" d="M1036.16 1080.94C1048.88 1082.8 1057.95 1088.7 1040.02 1089.94C1038.27 1090.06 1032.54 1085.56 1033.35 1082.22L1036.16 1080.94Z"/><path fill="#131217" transform="scale(0.50459 0.50459)" d="M1064.57 1039.44C1062.44 1035.07 1060.33 1027.26 1066.47 1025.34L1067.98 1024.82C1073.81 1032.56 1071.85 1034.63 1064.57 1039.44Z"/><path fill="#0D9E67" transform="scale(0.50459 0.50459)" d="M973.695 1106.53L974.898 1105.97C976.329 1105.33 977.715 1104.67 979.058 1103.85L980.437 1103.06C981.023 1105.77 981.914 1108.34 983.012 1110.89C982.499 1112.98 978.579 1112.98 976.925 1112.83C975.408 1112.69 974.288 1108 973.695 1106.53Z"/><path fill="#0B0C0D" transform="scale(0.50459 0.50459)" d="M1063.91 1070.03C1079.01 1070.53 1060.98 1086.69 1057.41 1089.56L1057.31 1089.61C1057.69 1089.83 1058.06 1090.04 1058.44 1090.25C1067.86 1095.2 1061.16 1108.37 1055.94 1113.97C1050.73 1119.57 1046.64 1120.73 1039.21 1120.91C1032.23 1118.96 1026.29 1114.4 1030.02 1106C1034.15 1096.69 1045.59 1091.83 1054.53 1088.1C1052.37 1076.12 1048.49 1074.14 1063.91 1070.03Z"/><path fill="#0B0C0D" transform="scale(0.50459 0.50459)" d="M1070.19 1007.53C1065.77 1001.62 1058.98 993.345 1074.49 989.757C1079.44 988.612 1085.31 995.141 1089.04 998.244C1095.75 1010.24 1092.64 1026.18 1084.29 1036.55C1080.66 1036.56 1075.71 1039.22 1074.12 1034.51C1070.23 1022.97 1070.17 1019.75 1070.19 1007.53Z"/><path fill="#131217" transform="scale(0.50459 0.50459)" d="M1005.77 1097.42C1030.91 1096.99 1034.35 1126.18 1007.13 1125.03C981.764 1116.87 972.681 1100.64 1005.77 1097.42Z"/><path fill="#0B0C0D" transform="scale(0.50459 0.50459)" d="M1051.98 969.916L1053.27 970.06C1066.18 971.395 1072.31 985.905 1060.99 994.74L1059.62 995.848C1053.84 994.114 1049.27 991.958 1045.59 986.72C1044 984.487 1043.4 981.691 1043.94 979.001C1044.9 974.288 1048.19 972.267 1051.98 969.916Z"/><path fill="#0B0C0D" transform="scale(0.50459 0.50459)" d="M978.014 1073.33C985.679 1074.69 988.132 1077.07 994.171 1082.04C995.81 1086.69 998.828 1091.4 998.571 1095.93C985.894 1094.25 977.438 1086.44 978.014 1073.33Z"/><path fill="#0D9E67" transform="scale(0.50459 0.50459)" d="M1227.07 883.762C1193.97 873.394 1159.08 868.137 1128.94 849.535C990.997 764.366 1020.27 660.13 1167.26 620.122C1170.25 627.068 1170.29 621.389 1168.49 625.955L1168.54 626C1167.75 626.559 1166.51 626.723 1166.01 627.579C1166.09 628.72 1167.91 628.703 1168.7 628.819C1118.47 655.315 1058.47 702.283 1095.47 767.201C1117.95 806.64 1165.35 827.371 1207.24 837.766C1226.26 842.484 1246.42 845.782 1265.82 850.535L1265.84 987.293C1265.89 1028.9 1269.95 1088.59 1257.72 1126.24C1224 1230.02 1115.23 1285.14 1024.64 1331.81C998.764 1317.73 972.251 1305.42 946.542 1290.81C909.284 1269.45 875.059 1243.19 844.781 1212.73C826.732 1194.82 803.361 1166.9 795.513 1142.51C779.917 1094.05 783.814 1028.58 783.824 977.441L783.613 849.375C812.952 843.757 841.281 838.066 869.431 828.705C955.816 799.979 1002.92 719.231 919.319 653.523C902.77 640.516 890.282 634.426 871.246 625.617C869.092 615.126 879.519 627.436 883.075 622.924L884.248 621.565C933.906 633.651 998.528 666.305 1007.16 722.638C1011.11 748.377 1002.18 770.155 987.141 790.673C947.007 845.426 886.651 872.126 820.984 881.687L820.767 1015.7C820.737 1045.36 817.89 1094.79 827.971 1121.26C851.861 1183.98 921.284 1230.04 975.923 1264.53C988.947 1272.76 1009.79 1281.58 1024.03 1288.2C1099.51 1245.81 1197.28 1201.08 1222.43 1108.5C1230.01 1080.6 1227.07 1037.44 1227.05 1007.23L1227.07 883.762Z"/><path fill="#0D9E67" transform="scale(0.50459 0.50459)" d="M1314.11 720.205C1303.97 707.492 1296.88 696.112 1298.61 678.653C1299.92 665.747 1306.45 653.937 1316.68 645.958C1327.41 637.453 1341.22 633.834 1354.75 635.98C1381.26 640.069 1400.21 666.228 1395.36 692.504C1392.9 706.094 1384.84 718.022 1373.14 725.365C1361.28 732.909 1348.26 734.506 1334.72 731.217C1333.21 730.846 1331.71 730.447 1330.22 730.017C1322.72 739.984 1311.97 753.456 1306.31 764.054C1287.11 799.984 1312.75 884.823 1363.87 872.529C1384.55 867.557 1400.89 860.223 1423.74 856.776C1423.1 846.394 1424.13 838.254 1431.51 829.957C1436.75 824.107 1444.12 820.604 1451.96 820.233C1460.59 819.86 1472 822.487 1477.98 829.156C1507.01 861.526 1458.11 907.569 1430.08 872.053C1428.53 870.04 1427.1 867.924 1425.83 865.72C1391.47 871.854 1363.5 882.305 1342.35 912.017C1320.35 942.923 1319.89 986.034 1355.05 1007.62C1384.06 1025.83 1412.77 1021.84 1444.69 1019.59C1461.5 947.969 1556.25 978.651 1540.3 1038.97C1536.96 1051.55 1528.75 1062.27 1517.49 1068.78C1506.27 1075.36 1492.88 1077.2 1480.3 1073.91C1461.4 1068.88 1452.62 1056.15 1445.65 1039.17C1432.38 1037.53 1418.28 1035.95 1405.05 1036.76C1380.36 1038.27 1352.75 1046.07 1337.41 1066.96C1318.75 1092.4 1329.46 1126.48 1348.36 1148.37C1367.37 1170.24 1396.28 1183.34 1424.91 1187.86C1431.22 1178.97 1437.57 1172.12 1449.05 1170.14C1457.74 1168.71 1466.63 1170.9 1473.67 1176.19C1480.77 1181.43 1485.42 1189.35 1486.55 1198.11C1487.64 1206.04 1485.46 1214.08 1480.51 1220.37C1469.1 1235.05 1448.42 1237.89 1433.67 1225.84C1424.82 1218.61 1422.79 1208.12 1421.83 1197.25C1402.96 1194.53 1384.8 1188.15 1368.38 1178.46C1356.72 1171.65 1341.6 1153.91 1329.68 1165.04C1311.3 1182.19 1293.55 1206.22 1290.2 1231.85C1286.3 1261.13 1313.99 1293.7 1330.61 1316.94C1402.67 1297.2 1420.25 1398.58 1356.83 1410.55C1343.56 1413 1329.86 1409.94 1318.9 1402.08C1308.16 1394.57 1300.92 1383.04 1298.83 1370.1C1296.97 1357.32 1300.31 1344.33 1308.1 1334.03C1310.23 1331.17 1313.28 1327.89 1315.81 1325.4C1307.06 1313.01 1298.57 1300.45 1290.34 1287.71C1275.17 1264.18 1269.82 1244.58 1239.68 1265.73C1231.04 1271.79 1222.01 1277.7 1213.86 1284.56C1179.31 1312.2 1172.95 1332.6 1199.99 1369.68C1208.26 1371.07 1216.04 1374.42 1220.89 1381.63C1224.4 1386.92 1225.65 1393.39 1224.37 1399.6C1222.88 1406.82 1218.62 1413.16 1212.5 1417.26C1206.9 1421.07 1199.93 1422.28 1193.37 1420.59C1181.05 1417.35 1169.45 1401.6 1174.47 1388.93C1177.47 1381.38 1181 1376.91 1187.59 1372.37C1177.68 1356.6 1176.64 1348.27 1170.05 1331.07C1168.9 1328.06 1168.17 1328.18 1165.91 1327.17C1157.01 1327.55 1148.93 1332.37 1140.89 1335.87C1087.36 1359.19 1061.63 1378.72 1052.66 1437.71C1050.7 1412.54 1056.11 1390.01 1072.49 1370.52C1098.36 1339.74 1136.28 1332.82 1168.63 1312.85C1179.44 1306.17 1191.85 1290.78 1201.99 1282.28C1217.12 1269.59 1233.24 1257.39 1247.96 1244.25C1273.2 1221.73 1292.06 1195.15 1310.86 1167.31C1315.26 1160.79 1325.68 1150.03 1325.14 1142.97C1324.32 1136.42 1320.75 1128.4 1318.11 1122.43C1308.2 1100.03 1307.89 1077.07 1324.27 1057.6C1334.67 1045.25 1345.59 1038.96 1359.61 1031.88C1360.85 1031.25 1360.36 1029.89 1360.31 1028.38C1358.53 1025.86 1348.99 1021.69 1345.34 1019.23C1322.42 1003.78 1307.1 977.896 1311.76 949.76C1314.78 931.509 1322.97 918.487 1329 901.61C1330.83 896.502 1326.32 888.241 1323.39 884.32C1311.45 869.972 1303.36 854.435 1297.9 836.509C1293.57 823.206 1291.48 806.402 1285.08 794.309C1280.9 786.401 1252.84 788.989 1245.16 788.899C1222.3 788.632 1200.64 781.726 1180.89 770.466L1181.92 769.837C1184.53 768.214 1185.09 767.872 1187.88 766.655C1215.34 775.537 1245.19 780.023 1272.42 766.836C1291.65 757.519 1303.29 737.819 1314.11 720.205Z"/><path fill="#131217" transform="scale(0.50459 0.50459)" d="M1487.5 998.284C1497.81 996.292 1508.39 1000.01 1515.17 1008.02C1521.96 1016.02 1523.9 1027.07 1520.25 1036.91C1516.6 1046.75 1507.93 1053.85 1497.56 1055.5C1481.91 1057.98 1467.15 1047.45 1464.4 1031.84C1461.66 1016.22 1471.94 1001.29 1487.5 998.284Z"/><path fill="#131217" transform="scale(0.50459 0.50459)" d="M1342.28 1334.21C1352.58 1332.39 1363.06 1336.26 1369.7 1344.34C1376.34 1352.41 1378.12 1363.44 1374.35 1373.19C1370.58 1382.94 1361.86 1389.91 1351.51 1391.42C1335.84 1393.71 1321.23 1383 1318.71 1367.36C1316.19 1351.73 1326.69 1336.96 1342.28 1334.21Z"/><path fill="#131217" transform="scale(0.50459 0.50459)" d="M1346.05 655.219C1361.83 654.533 1375.25 666.63 1376.19 682.397C1377.13 698.164 1365.26 711.774 1349.51 712.974C1339.09 713.768 1329.05 708.882 1323.25 700.192C1317.45 691.503 1316.78 680.359 1321.51 671.04C1326.23 661.72 1335.61 655.673 1346.05 655.219Z"/><path fill="#131217" transform="scale(0.50459 0.50459)" d="M1449.46 833.498C1459.64 830.429 1470.38 836.194 1473.44 846.372C1476.51 856.55 1470.74 867.286 1460.56 870.35C1450.39 873.413 1439.66 867.648 1436.59 857.473C1433.53 847.299 1439.29 836.566 1449.46 833.498Z"/><path fill="#0B0C0D" transform="scale(0.50459 0.50459)" d="M1453.14 867.483C1457.05 866.937 1459.06 865.575 1461.43 868.766C1458.83 868.775 1454.76 869.667 1453.14 867.483Z"/><path fill="#131217" transform="scale(0.50459 0.50459)" d="M1448.63 1183.49C1455.19 1181.21 1462.47 1182.65 1467.66 1187.25C1472.86 1191.86 1475.15 1198.91 1473.67 1205.7C1472.19 1212.48 1467.16 1217.93 1460.52 1219.96C1450.52 1223 1439.93 1217.48 1436.69 1207.55C1433.46 1197.62 1438.76 1186.92 1448.63 1183.49Z"/><path fill="#131217" transform="scale(0.50459 0.50459)" d="M1195.55 1381.49C1200.63 1380.1 1206.06 1381.56 1209.74 1385.32C1213.43 1389.08 1214.79 1394.54 1213.3 1399.59C1211.81 1404.64 1207.7 1408.48 1202.57 1409.64C1194.88 1411.37 1187.21 1406.64 1185.3 1398.99C1183.4 1391.34 1187.95 1383.57 1195.55 1381.49Z"/><path fill="#0D9E67" transform="scale(0.50459 0.50459)" d="M718.578 729.441C686.793 738.826 655.913 724.311 651.353 689.658C649.633 677.037 653.111 664.257 660.99 654.248C668.929 644.048 680.625 637.457 693.462 635.949C707.12 634.379 721.137 638.195 731.672 647.143C741.676 655.782 747.832 668.044 748.785 681.227C750.013 697.593 743.372 707.7 733.42 719.241C746.207 740.03 758.779 761.879 783.345 770.322C815.469 781.364 847.991 772.099 877.642 758.595L877.455 763.546C857.571 776.454 848.479 780.197 825.327 786.46C811.027 790.329 774.108 784.623 765.333 791.732C753.942 800.958 750.674 856.395 735.217 870.652C730.482 875.02 719.027 893.478 717.316 898.342C720.553 908.172 725.554 916.81 729.389 926.243C737.344 945.808 740.023 968.702 730.237 988.139C723.135 1002.43 711.594 1013.89 698.206 1022.34C693.484 1025.33 688.543 1027.52 684.056 1030.64C705.266 1040.18 723.883 1050.83 732.934 1073.66C745.178 1104.55 726.263 1121.46 721.022 1145.11C725.687 1155.45 735.731 1167.47 742.552 1176.95C759.295 1200.23 777.351 1224.01 799.158 1242.97C826.187 1266.46 854.511 1288.36 880.092 1313.68C887.896 1321.41 910.534 1327.9 920.326 1333.25C948.778 1345.75 979.513 1364.96 989.609 1396.27C985.546 1396.62 986.817 1395.74 985.217 1399.96C965.8 1360.56 935.961 1349.06 897.518 1331.67C893.055 1329.65 880.924 1324.54 878.554 1331.18C873.125 1346.37 869.038 1358.69 860.436 1372.49C871.497 1381.16 875.125 1386.28 873.525 1400.47L872.898 1402.86C869.454 1411.71 864.577 1417.59 855.094 1420.29C848.413 1422.13 841.275 1421.2 835.287 1417.71C819.315 1408.3 817.643 1381.71 835.3 1373.46C848.124 1367.47 847.909 1370.63 856.104 1357.86C886.466 1310.88 830.92 1281.62 798.204 1260.24C787.101 1253.85 780.541 1254.07 772.775 1265.06C762.688 1279.32 753.578 1294.41 743.437 1308.69C739.878 1313.7 734.843 1320.53 732.304 1325.94C755.081 1350.84 756.427 1385.9 725.062 1404.41C713.419 1411.3 699.444 1413.07 686.447 1409.31C624.88 1392.1 649.828 1295.26 717.644 1317.13C734.752 1290.65 762.682 1262.04 757.164 1229.17C752.832 1204.34 735.243 1180.19 716.653 1163.96C705.407 1154.15 693.75 1169.31 684.258 1175.5C666.615 1187 648.125 1194.25 627.285 1197.36C625.226 1217.87 614.995 1235.25 591.254 1233.06C562.756 1230.43 551.221 1193 576.296 1175.44C583.558 1170.27 592.648 1168.37 601.37 1170.2C612.394 1172.54 618.02 1178.69 623.728 1187.51C653.491 1182.06 678.504 1172.67 698.591 1149.81C737.316 1105.75 723.462 1051.43 663.65 1039.57C640.647 1035.01 625.379 1036.69 602.812 1038.85C587.368 1089.32 521.441 1085.31 508.806 1040.13C505.137 1026.88 507.129 1012.7 514.307 1000.97C521.364 989.497 533.579 981.56 546.655 978.792C559.23 976.261 572.294 978.972 582.823 986.298C594.793 994.551 600.947 1005.34 603.646 1019.36C634.667 1022.62 665.152 1025 692.884 1007.52C727.068 985.999 727.503 943.737 706.235 912.84C685.78 883.124 656.853 872.216 622.892 865.84C622.216 866.977 621.498 868.089 620.741 869.174C602.258 896.057 566.837 885.386 562.422 854.4C559.883 836.579 573.999 820.597 592.394 820.271C615.831 819.856 625.822 835.404 625.846 857.326C647.83 859.847 662.366 867.591 682.744 872.186C720.649 880.734 741.585 843.428 746.843 811.576C753.03 774.09 739.449 758.534 718.578 729.441Z"/><path fill="#131217" transform="scale(0.50459 0.50459)" d="M693.739 1334.26C703.995 1331.99 714.682 1335.41 721.706 1343.22C728.731 1351.03 731.004 1362.02 727.656 1371.98C724.308 1381.94 715.857 1389.32 705.54 1391.3C689.903 1394.3 674.754 1384.19 671.528 1368.6C668.302 1353.01 678.195 1337.71 693.739 1334.26Z"/><path fill="#131217" transform="scale(0.50459 0.50459)" d="M550.097 998.365C565.844 995.214 581.167 1005.42 584.332 1021.16C587.497 1036.91 577.307 1052.24 561.565 1055.42C545.804 1058.6 530.451 1048.39 527.282 1032.63C524.113 1016.87 534.331 1001.52 550.097 998.365Z"/><path fill="#131217" transform="scale(0.50459 0.50459)" d="M692.377 656.209C707.789 652.144 723.594 661.278 727.767 676.662C731.94 692.046 722.918 707.914 707.564 712.196C692.056 716.52 675.994 707.387 671.779 691.85C667.564 676.312 676.81 660.314 692.377 656.209Z"/><path fill="#131217" transform="scale(0.50459 0.50459)" d="M589.176 833.325C599.493 830.659 610.008 836.904 612.602 847.24C615.197 857.575 608.878 868.047 598.525 870.569C588.273 873.067 577.927 866.824 575.358 856.589C572.789 846.355 578.96 835.966 589.176 833.325Z"/><path fill="#131217" transform="scale(0.50459 0.50459)" d="M588.013 1183.58C594.583 1181.33 601.86 1182.81 607.02 1187.46C612.179 1192.11 614.41 1199.2 612.845 1205.97C611.281 1212.73 606.168 1218.12 599.49 1220.04C589.527 1222.89 579.102 1217.29 575.99 1207.4C572.877 1197.52 578.211 1186.95 588.013 1183.58Z"/><path fill="#131217" transform="scale(0.50459 0.50459)" d="M843.729 1381.44C848.878 1379.71 854.563 1380.96 858.505 1384.7C862.448 1388.44 864.003 1394.04 862.549 1399.28C861.094 1404.51 856.867 1408.52 851.561 1409.68C843.944 1411.36 836.346 1406.79 834.262 1399.27C832.179 1391.76 836.336 1383.92 843.729 1381.44Z"/><path fill="#0D9E67" transform="scale(0.50459 0.50459)" d="M1112.21 1129.47C1115.33 1133.15 1120.54 1133.13 1125.76 1135.79C1126.13 1136.28 1126.49 1136.76 1126.86 1137.24C1131.41 1148.81 1134.68 1159.25 1119.43 1165.81C1115.46 1167.53 1110.96 1167.51 1107.01 1165.75C1104.2 1164.52 1103.27 1163.7 1100.99 1161.71C1103.45 1159.56 1103.78 1159.18 1105.66 1156.55C1103.66 1154.52 1102.58 1151.75 1102.68 1148.91C1099.18 1154.96 1097.12 1151.93 1095.85 1147.06C1098.19 1136.51 1103.1 1135.98 1110.46 1130.49L1112.21 1129.47Z"/><path fill="#131217" transform="scale(0.50459 0.50459)" d="M1102.68 1148.91C1102.86 1144.01 1106.45 1139.91 1111.28 1139.09C1116.11 1138.27 1120.85 1140.96 1122.63 1145.52C1124.41 1150.09 1122.74 1155.27 1118.63 1157.94C1114.52 1160.61 1109.11 1160.03 1105.66 1156.55C1103.66 1154.52 1102.58 1151.75 1102.68 1148.91Z"/><path fill="#129A6B" transform="scale(0.50459 0.50459)" d="M1167.26 620.122C1180.64 616.476 1195.22 613.913 1208.97 612.306L1208.04 612.706C1195.01 618.451 1182.09 622.793 1168.7 628.819C1167.91 628.703 1166.09 628.72 1166.01 627.579C1166.51 626.723 1167.75 626.559 1168.54 626L1168.49 625.955C1170.29 621.389 1170.25 627.068 1167.26 620.122Z"/><path fill="#129A6B" transform="scale(0.50459 0.50459)" d="M871.246 625.617C860.597 620.987 847.833 617.012 837.849 612.245C854.177 613.967 868.392 617.264 884.248 621.565L883.075 622.924C879.519 627.436 869.092 615.126 871.246 625.617Z"/><path fill="#129A6B" transform="scale(0.50459 0.50459)" d="M985.217 1399.96C986.817 1395.74 985.546 1396.62 989.609 1396.27C992.978 1404.28 997.398 1427.36 995.455 1435.41C995.248 1435.49 995.041 1435.58 994.833 1435.67C997.19 1438.45 986.923 1403.83 985.217 1399.96Z"/><path fill="#129A6B" transform="scale(0.50459 0.50459)" d="M1153.61 750.547C1165.7 756.985 1175.67 761.093 1187.88 766.655C1185.09 767.872 1184.53 768.214 1181.92 769.837L1180.89 770.466C1180.43 770.194 1179.98 769.922 1179.52 769.65C1170.22 764.241 1161.53 757.836 1153.61 750.547Z"/><path fill="#129A6B" transform="scale(0.50459 0.50459)" d="M893.801 750.248C888.931 754.935 882.833 759.383 877.455 763.546L877.642 758.595L878.642 758.106C883.731 755.66 888.904 753.075 893.801 750.248Z"/><path fill="#0B0C0D" transform="scale(0.50459 0.50459)" d="M873.525 1400.47C873.433 1400.33 874.848 1402.29 874.777 1402.27C883.347 1404.95 881.7 1415.54 872.898 1402.86L873.525 1400.47Z"/></svg>